# xmcd
#
# Track frame offsets:
#  150
#  16535
#  31345
#  40469
#  49946
#  64736
#  77673
#  91554
#  102187
#  113751
#  129640
#  146533
#  159262
#  176603
#  191801
#
# Disc length: 2761 seconds
#
# Revision: 0
# Processed by: cddbd v1.5.2PL0 Copyright (c) Steve Scherf et al.
# Submitted via: AltoMP3_Maker 3.0
#
DISCID=b90ac70f
DTITLE=Superstars of Country - Good Ol' Songs - Disc 2
DYEAR=1900
DGENRE=
TTITLE0=Ronnie Milsap - Any Day Now
TTITLE1=Alabama - Love In The First Degree
TTITLE2=Charley Pride - Kiss An Angel Good Mornin'
TTITLE3=Dottie West - Country Sunshine
TTITLE4=Waylon Jennings - Luckenbach, Texas [Back To The Basics of Love]
TTITLE5=Dolly Parton - Here You Come Again
TTITLE6=Glen Campbell - Wichita Lineman
TTITLE7=Jerry Reed - When You're Hot, You're Hot
TTITLE8=The Kendalls - Heaven's Just A Sin Away
TTITLE9=Waylon Jennings and Willie Nelson - Mammas, Don't Let Your Babies Grow Up To Be Cowboys
TTITLE10=Ronnie Milsap - Smoky Mountain Rain
TTITLE11=Gary Stewart - She's Actin' Single [I'm Drinkin' Doubles]
TTITLE12=Mary MacGregor - Torn Between Two Lovers
TTITLE13=Sylvia - Nobody
TTITLE14=John Denver - Thank God I'm A Country Boy
EXTD=
EXTT0=
EXTT1=
EXTT2=
EXTT3=
EXTT4=
EXTT5=
EXTT6=
EXTT7=
EXTT8=
EXTT9=
EXTT10=
EXTT11=
EXTT12=
EXTT13=
EXTT14=
PLAYORDER=
